<svg width="469" height="308" viewBox="0 0 469 308" fill="none" xmlns="http://www.w3.org/2000/svg">
<path d="M459.313 260.24L469 269.684L469 308L418.076 308L413.371 303.413L367.428 303.413L363 299.096L459.313 299.096L459.313 260.24Z" fill="#43FFFC"/>
<path d="M419 10.4161L428.689 0.974609L468 0.974609V50.6097L463.294 55.1955V99.975L458.864 104.291V10.4161L419 10.4161Z" fill="#43FFFC"/>
<path d="M49 9.35238L39.3107 0H0V49.1668L4.70621 53.7094V98.0664L9.13559 102.342V9.35238H49Z" fill="#43FFFC"/>
<path d="M9.5953 260.24L-4.23531e-07 269.684L-2.14186e-06 308L50.4439 308L55.1044 303.413L100.614 303.413L105 299.096L9.5953 299.096L9.5953 260.24Z" fill="#43FFFC"/>
</svg>
