<svg width="393" height="169" viewBox="0 0 393 169" fill="none" xmlns="http://www.w3.org/2000/svg">
<g filter="url(#filter0_d_25_570)">
<circle r="5.37188" transform="matrix(1 0 0 -1 268.372 114.372)" fill="#43FFFC" fill-opacity="0.1" shape-rendering="crispEdges"/>
<circle r="4.87188" transform="matrix(1 0 0 -1 268.372 114.372)" stroke="#43FFFC" shape-rendering="crispEdges"/>
</g>
<circle r="3.35742" transform="matrix(1 0 0 -1 268.276 114.468)" fill="#094052" fill-opacity="0.5"/>
<g filter="url(#filter1_d_25_570)">
<path d="M271.729 118.401L300.603 147.275H314.225" stroke="#43FFFC" shape-rendering="crispEdges"/>
</g>
<g filter="url(#filter2_d_25_570)">
<rect width="62" height="19" transform="matrix(1 0 0 -1 314 156.963)" fill="#094052" fill-opacity="0.2" shape-rendering="crispEdges"/>
<rect x="0.5" y="-0.5" width="61" height="18" transform="matrix(1 0 0 -1 314 155.963)" stroke="#43FFFC" shape-rendering="crispEdges"/>
</g>
<g filter="url(#filter3_d_25_570)">
<line y1="-0.5" x2="14.1971" y2="-0.5" transform="matrix(-4.37114e-08 -1 -1 4.37114e-08 377 154.963)" stroke="#43FFFC" shape-rendering="crispEdges"/>
</g>
<g filter="url(#filter4_d_25_570)">
<line y1="-0.5" x2="7.09855" y2="-0.5" transform="matrix(4.37114e-08 -1 -1 -4.37114e-08 379.11 151.51)" stroke="#43FFFC" shape-rendering="crispEdges"/>
</g>
<path d="M327.059 144.064V145.051H327.92V144.064H327.059ZM324.497 144.603V145.954H325.323V145.359H329.649V145.849H330.51V144.603H324.497ZM326.506 145.989V146.724H330.559V145.989H326.506ZM327.136 148.453V149.132H329.859V148.453H327.136ZM327.136 149.692V150.406H329.859V149.692H327.136ZM326.751 147.242V150.644H327.549V147.956H329.474V150.637H330.3V147.242H326.751ZM328.06 146.353C328.011 146.745 327.892 147.27 327.787 147.62L328.529 147.823C328.662 147.501 328.83 147.025 328.998 146.563L328.06 146.353ZM325.792 145.541C325.421 146.353 324.777 147.137 324.112 147.62C324.259 147.809 324.504 148.229 324.595 148.411C325.358 147.795 326.107 146.794 326.569 145.8L325.792 145.541ZM325.176 146.997V150.63H325.967V146.283L325.911 146.255L325.176 146.997ZM332.785 145.737V146.458H336.222V145.737H332.785ZM331.658 146.913V147.648H337.356V146.913H331.658ZM332.68 149.664V150.399H336.334V149.664H332.68ZM332.26 148.187V150.609H333.107V148.915H335.886V150.595H336.768V148.187H332.26ZM334.472 144.764C335.116 145.485 336.334 146.255 337.356 146.682C337.489 146.444 337.678 146.157 337.874 145.961C336.768 145.618 335.634 144.932 334.843 144.05H334.024C333.457 144.771 332.323 145.59 331.147 146.031C331.308 146.199 331.518 146.514 331.616 146.703C332.743 146.227 333.863 145.471 334.472 144.764ZM334.045 146.143V148.551H334.913V146.143H334.045ZM340.737 145.324V146.003H344.713V145.324H340.737ZM340.702 147.788V148.481H344.79V147.788H340.702ZM342.291 144.057V147.326H343.082V144.057H342.291ZM340.947 144.491C341.129 144.785 341.325 145.17 341.388 145.422L342.06 145.1C341.976 144.848 341.766 144.477 341.57 144.204L340.947 144.491ZM343.824 144.148C343.712 144.442 343.495 144.855 343.32 145.114L343.88 145.38C344.069 145.149 344.307 144.799 344.559 144.463L343.824 144.148ZM342.165 145.59C341.836 146.129 341.192 146.647 340.534 146.906C340.695 147.046 340.926 147.319 341.038 147.501C341.745 147.165 342.403 146.514 342.788 145.793L342.165 145.59ZM343.187 145.611L342.606 145.842C343.005 146.465 343.691 147.095 344.328 147.424C344.447 147.235 344.685 146.955 344.853 146.808C344.23 146.563 343.544 146.087 343.187 145.611ZM342.067 147.256C341.766 147.935 341.297 148.81 340.954 149.356L341.661 149.58C342.018 149.006 342.501 148.152 342.879 147.424L342.067 147.256ZM341.332 149.321C342.396 149.72 343.488 150.259 344.132 150.651L344.692 150.07C344.006 149.685 342.851 149.167 341.787 148.782L341.332 149.321ZM343.348 148.306C343.047 149.419 342.277 149.804 340.499 149.93C340.618 150.091 340.744 150.399 340.807 150.637C342.893 150.357 343.803 149.86 344.174 148.376L343.348 148.306ZM338.308 145.506V146.283H340.625V145.506H338.308ZM339.162 144.057V150.63H339.925V144.057H339.162ZM339.148 146.038C338.987 146.927 338.595 148.026 338.147 148.635C338.266 148.831 338.448 149.153 338.518 149.377C339.015 148.656 339.414 147.305 339.617 146.199L339.148 146.038ZM339.89 146.563L339.54 146.906C339.736 147.249 340.156 148.068 340.317 148.495L340.751 147.893C340.632 147.683 340.051 146.766 339.89 146.563ZM363.346 144.057V144.848H364.088V144.057H363.346ZM363.346 146.976V150.252H364.088V146.976H363.346ZM361.911 144.547V145.184H365.621V144.547H361.911ZM361.743 145.723V146.374H365.768V145.723H361.743ZM361.554 149.888V150.539H365.831V149.888H361.554ZM361.883 148.936V149.545H365.579V148.936H361.883ZM362.429 145.205C362.534 145.415 362.632 145.709 362.66 145.891L363.318 145.709C363.283 145.527 363.171 145.254 363.045 145.051L362.429 145.205ZM364.41 145.058C364.354 145.254 364.221 145.534 364.123 145.73L364.697 145.891C364.809 145.723 364.956 145.485 365.117 145.233L364.41 145.058ZM362.737 147.851H364.746V148.159H362.737V147.851ZM362.737 147.088H364.746V147.389H362.737V147.088ZM362.044 146.598V148.649H365.467V146.598H362.044ZM360.231 144.057V150.63H360.896V144.057H360.231ZM359.377 145.345V149.153H359.972V146.087H361.421V145.345H359.377ZM361.162 145.345V148.278C361.162 148.334 361.155 148.341 361.12 148.341C361.078 148.341 361.001 148.341 360.91 148.341C361.001 148.53 361.078 148.838 361.085 149.034C361.302 149.034 361.435 149.013 361.575 148.887C361.701 148.761 361.729 148.544 361.729 148.299V145.345H361.162Z" fill="white"/>
<path d="M345.413 150V149.224L347.225 147.547C347.379 147.397 347.508 147.263 347.613 147.144C347.719 147.025 347.799 146.908 347.854 146.793C347.908 146.677 347.936 146.552 347.936 146.418C347.936 146.269 347.902 146.14 347.834 146.033C347.766 145.923 347.673 145.84 347.555 145.782C347.438 145.722 347.304 145.692 347.155 145.692C346.999 145.692 346.864 145.724 346.748 145.787C346.632 145.85 346.542 145.94 346.479 146.058C346.416 146.175 346.385 146.315 346.385 146.478H345.363C345.363 146.145 345.438 145.855 345.589 145.61C345.74 145.365 345.951 145.175 346.223 145.041C346.495 144.907 346.808 144.839 347.163 144.839C347.527 144.839 347.845 144.904 348.115 145.033C348.386 145.161 348.598 145.338 348.749 145.565C348.899 145.792 348.975 146.053 348.975 146.346C348.975 146.538 348.937 146.728 348.86 146.915C348.786 147.102 348.652 147.31 348.46 147.539C348.268 147.766 347.997 148.039 347.647 148.357L346.904 149.085V149.12H349.042V150H345.413ZM351.818 150.112C351.39 150.11 351.022 150.005 350.714 149.796C350.408 149.587 350.171 149.285 350.006 148.889C349.842 148.493 349.761 148.016 349.762 147.46C349.762 146.904 349.844 146.431 350.008 146.04C350.174 145.649 350.41 145.352 350.717 145.148C351.025 144.942 351.392 144.839 351.818 144.839C352.244 144.839 352.61 144.942 352.917 145.148C353.225 145.353 353.462 145.652 353.628 146.043C353.793 146.432 353.875 146.904 353.874 147.46C353.874 148.018 353.791 148.495 353.625 148.891C353.461 149.287 353.226 149.59 352.919 149.799C352.613 150.007 352.245 150.112 351.818 150.112ZM351.818 149.219C352.11 149.219 352.342 149.073 352.516 148.779C352.69 148.486 352.777 148.046 352.775 147.46C352.775 147.073 352.735 146.752 352.656 146.495C352.578 146.238 352.467 146.045 352.323 145.916C352.18 145.787 352.012 145.722 351.818 145.722C351.528 145.722 351.296 145.867 351.122 146.157C350.948 146.447 350.86 146.881 350.858 147.46C350.858 147.851 350.897 148.177 350.975 148.439C351.055 148.699 351.167 148.895 351.311 149.026C351.455 149.155 351.624 149.219 351.818 149.219ZM356.637 150.112C356.21 150.11 355.842 150.005 355.534 149.796C355.227 149.587 354.991 149.285 354.825 148.889C354.661 148.493 354.58 148.016 354.581 147.46C354.581 146.904 354.664 146.431 354.828 146.04C354.993 145.649 355.229 145.352 355.536 145.148C355.844 144.942 356.211 144.839 356.637 144.839C357.063 144.839 357.429 144.942 357.736 145.148C358.044 145.353 358.281 145.652 358.447 146.043C358.613 146.432 358.695 146.904 358.693 147.46C358.693 148.018 358.61 148.495 358.444 148.891C358.28 149.287 358.045 149.59 357.738 149.799C357.432 150.007 357.065 150.112 356.637 150.112ZM356.637 149.219C356.929 149.219 357.162 149.073 357.336 148.779C357.51 148.486 357.596 148.046 357.594 147.46C357.594 147.073 357.555 146.752 357.475 146.495C357.397 146.238 357.286 146.045 357.142 145.916C356.999 145.787 356.831 145.722 356.637 145.722C356.347 145.722 356.115 145.867 355.941 146.157C355.767 146.447 355.679 146.881 355.678 147.46C355.678 147.851 355.717 148.177 355.795 148.439C355.874 148.699 355.986 148.895 356.13 149.026C356.274 149.155 356.443 149.219 356.637 149.219Z" fill="#43FFFC"/>
<g filter="url(#filter5_d_25_570)">
<path d="M120.381 118.401L91.5073 147.275H77.8857" stroke="#43FFFC" shape-rendering="crispEdges"/>
</g>
<g filter="url(#filter6_d_25_570)">
<rect x="78.1105" y="156.963" width="62" height="19" transform="rotate(-180 78.1105 156.963)" fill="#094052" fill-opacity="0.2" shape-rendering="crispEdges"/>
<rect x="77.6105" y="156.463" width="61" height="18" transform="rotate(-180 77.6105 156.463)" stroke="#43FFFC" shape-rendering="crispEdges"/>
</g>
<g filter="url(#filter7_d_25_570)">
<line x1="14.6105" y1="154.963" x2="14.6105" y2="140.766" stroke="#43FFFC" shape-rendering="crispEdges"/>
</g>
<g filter="url(#filter8_d_25_570)">
<line x1="12.5001" y1="151.51" x2="12.5001" y2="144.411" stroke="#43FFFC" shape-rendering="crispEdges"/>
</g>
<path d="M23.339 145.233V146.017H26.552V145.233H23.339ZM21.442 149.468V150.259H25.495V149.468H21.442ZM22.975 144.064V147.606H23.85V144.064H22.975ZM20.931 147.235V150.616H21.757V148.019H25.18V150.581H26.048V147.235H20.931ZM31.319 144.057V148.999H32.11V144.057H31.319ZM29.247 146.871L29.562 147.613L33.181 146.045L32.873 145.331L29.247 146.871ZM29.94 144.736V149.265C29.94 150.238 30.206 150.49 31.165 150.49C31.382 150.49 32.432 150.49 32.663 150.49C33.482 150.49 33.734 150.161 33.839 149.167C33.615 149.125 33.286 148.992 33.104 148.866C33.048 149.587 32.978 149.741 32.593 149.741C32.376 149.741 31.445 149.741 31.235 149.741C30.801 149.741 30.738 149.685 30.738 149.272V144.736H29.94ZM32.712 145.422C32.712 146.969 32.712 147.732 32.684 147.872C32.663 147.998 32.621 148.019 32.537 148.019C32.474 148.019 32.313 148.019 32.194 148.012C32.285 148.187 32.348 148.502 32.376 148.712C32.6 148.712 32.901 148.712 33.104 148.614C33.321 148.523 33.44 148.355 33.468 148.033C33.496 147.746 33.51 146.899 33.51 145.562L33.545 145.422L32.957 145.212L32.81 145.317L32.663 145.422H32.712ZM27.238 145.681V146.472H29.548V145.681H27.238ZM28.05 144.155V148.796H28.834V144.155H28.05ZM27.14 148.803L27.476 149.643C28.127 149.349 28.932 148.971 29.674 148.593L29.485 147.851C28.631 148.215 27.721 148.593 27.14 148.803ZM36.52 147.144V147.802H38.319V147.144H36.52ZM36.52 148.32V148.978H38.326V148.32H36.52ZM35.162 149.503V150.273H39.887V149.503H35.162ZM34.637 145.884V150.63H35.442V146.654H39.502V150.63H40.356V145.884H34.637ZM36.163 146.395V149.846H36.912V146.395H36.163ZM37.99 146.395V149.839H38.746V146.395H37.99ZM36.954 144.82C36.926 145.261 36.814 145.849 36.716 146.255L37.486 146.458C37.626 146.094 37.78 145.548 37.948 145.03L36.954 144.82ZM34.343 144.456V145.254H40.671V144.456H34.343ZM42.414 144.694V150.63H43.212V144.694H42.414ZM41.259 146.038V146.822H44.185V146.038H41.259ZM42.442 146.353C42.197 147.13 41.672 148.152 41.14 148.705C41.273 148.929 41.476 149.286 41.553 149.531C42.127 148.838 42.659 147.599 42.953 146.584L42.442 146.353ZM43.723 144.099C43.072 144.344 42.078 144.554 41.182 144.68C41.273 144.862 41.378 145.149 41.406 145.331C42.316 145.233 43.38 145.058 44.164 144.785L43.723 144.099ZM43.191 146.899L42.848 147.235C43.1 147.55 43.59 148.285 43.779 148.656L44.234 147.97C44.087 147.788 43.387 147.067 43.191 146.899ZM46.173 148.649C46.523 149.265 46.894 150.084 47.02 150.595L47.818 150.273C47.671 149.755 47.279 148.971 46.915 148.376L46.173 148.649ZM44.787 148.404C44.612 149.069 44.276 149.727 43.849 150.14C44.052 150.252 44.402 150.49 44.556 150.623C44.99 150.147 45.396 149.377 45.62 148.6L44.787 148.404ZM45.151 145.303H46.649V147.046H45.151V145.303ZM44.346 144.505V147.844H47.489V144.505H44.346ZM68.1342 147.851V148.621H72.6072V147.851H68.1342ZM68.2462 149.461V150.266H72.4742V149.461H68.2462ZM67.7142 146.248V150.63H68.5332V147.053H72.1662V150.623H73.0272V146.248H67.7142ZM69.9332 146.773V149.909H70.7662V146.773H69.9332ZM67.2592 144.925V145.744H73.4682V144.925H67.2592ZM69.6812 144.295C69.8562 144.617 70.0662 145.051 70.1572 145.317L71.0042 145.002C70.8992 144.736 70.6682 144.323 70.4862 144.022L69.6812 144.295Z" fill="white"/>
<path d="M48.4126 150V149.224L50.2248 147.547C50.3789 147.397 50.5082 147.263 50.6126 147.144C50.7186 147.025 50.799 146.908 50.8537 146.793C50.9084 146.677 50.9357 146.552 50.9357 146.418C50.9357 146.269 50.9018 146.14 50.8338 146.033C50.7659 145.923 50.6731 145.84 50.5554 145.782C50.4377 145.722 50.3043 145.692 50.1552 145.692C49.9994 145.692 49.8635 145.724 49.7475 145.787C49.6315 145.85 49.542 145.94 49.479 146.058C49.4161 146.175 49.3846 146.315 49.3846 146.478H48.3629C48.3629 146.145 48.4383 145.855 48.5891 145.61C48.7399 145.365 48.9512 145.175 49.223 145.041C49.4948 144.907 49.808 144.839 50.1626 144.839C50.5272 144.839 50.8446 144.904 51.1147 145.033C51.3865 145.161 51.5978 145.338 51.7486 145.565C51.8994 145.792 51.9748 146.053 51.9748 146.346C51.9748 146.538 51.9367 146.728 51.8604 146.915C51.7859 147.102 51.6525 147.31 51.4602 147.539C51.268 147.766 50.997 148.039 50.6474 148.357L49.9041 149.085V149.12H52.0419V150H48.4126ZM54.8179 150.112C54.3904 150.11 54.0225 150.005 53.7142 149.796C53.4076 149.587 53.1715 149.285 53.0058 148.889C52.8417 148.493 52.7605 148.016 52.7622 147.46C52.7622 146.904 52.8442 146.431 53.0083 146.04C53.174 145.649 53.4101 145.352 53.7167 145.148C54.0249 144.942 54.392 144.839 54.8179 144.839C55.2438 144.839 55.6101 144.942 55.9166 145.148C56.2249 145.353 56.4619 145.652 56.6276 146.043C56.7933 146.432 56.8753 146.904 56.8737 147.46C56.8737 148.018 56.7908 148.495 56.6251 148.891C56.461 149.287 56.2257 149.59 55.9191 149.799C55.6125 150.007 55.2455 150.112 54.8179 150.112ZM54.8179 149.219C55.1096 149.219 55.3424 149.073 55.5164 148.779C55.6904 148.486 55.7766 148.046 55.7749 147.46C55.7749 147.073 55.7352 146.752 55.6556 146.495C55.5777 146.238 55.4667 146.045 55.3225 145.916C55.18 145.787 55.0118 145.722 54.8179 145.722C54.5279 145.722 54.2959 145.867 54.1219 146.157C53.9479 146.447 53.8601 146.881 53.8584 147.46C53.8584 147.851 53.8973 148.177 53.9752 148.439C54.0548 148.699 54.1666 148.895 54.3108 149.026C54.455 149.155 54.624 149.219 54.8179 149.219ZM59.6373 150.112C59.2097 150.11 58.8418 150.005 58.5336 149.796C58.227 149.587 57.9908 149.285 57.8251 148.889C57.661 148.493 57.5798 148.016 57.5815 147.46C57.5815 146.904 57.6635 146.431 57.8276 146.04C57.9933 145.649 58.2295 145.352 58.536 145.148C58.8443 144.942 59.2114 144.839 59.6373 144.839C60.0632 144.839 60.4294 144.942 60.736 145.148C61.0442 145.353 61.2812 145.652 61.4469 146.043C61.6126 146.432 61.6947 146.904 61.693 147.46C61.693 148.018 61.6101 148.495 61.4444 148.891C61.2804 149.287 61.045 149.59 60.7385 149.799C60.4319 150.007 60.0648 150.112 59.6373 150.112ZM59.6373 149.219C59.9289 149.219 60.1618 149.073 60.3358 148.779C60.5098 148.486 60.5959 148.046 60.5943 147.46C60.5943 147.073 60.5545 146.752 60.475 146.495C60.3971 146.238 60.286 146.045 60.1419 145.916C59.9993 145.787 59.8311 145.722 59.6373 145.722C59.3472 145.722 59.1152 145.867 58.9412 146.157C58.7672 146.447 58.6794 146.881 58.6777 147.46C58.6777 147.851 58.7167 148.177 58.7946 148.439C58.8741 148.699 58.986 148.895 59.1301 149.026C59.2743 149.155 59.4434 149.219 59.6373 149.219ZM64.4566 150.112C64.029 150.11 63.6611 150.005 63.3529 149.796C63.0463 149.587 62.8102 149.285 62.6444 148.889C62.4804 148.493 62.3992 148.016 62.4008 147.46C62.4008 146.904 62.4829 146.431 62.6469 146.04C62.8126 145.649 63.0488 145.352 63.3554 145.148C63.6636 144.942 64.0307 144.839 64.4566 144.839C64.8825 144.839 65.2487 144.942 65.5553 145.148C65.8635 145.353 66.1005 145.652 66.2662 146.043C66.432 146.432 66.514 146.904 66.5123 147.46C66.5123 148.018 66.4295 148.495 66.2638 148.891C66.0997 149.287 65.8644 149.59 65.5578 149.799C65.2512 150.007 64.8841 150.112 64.4566 150.112ZM64.4566 149.219C64.7483 149.219 64.9811 149.073 65.1551 148.779C65.3291 148.486 65.4153 148.046 65.4136 147.46C65.4136 147.073 65.3738 146.752 65.2943 146.495C65.2164 146.238 65.1054 146.045 64.9612 145.916C64.8187 145.787 64.6505 145.722 64.4566 145.722C64.1666 145.722 63.9346 145.867 63.7606 146.157C63.5866 146.447 63.4987 146.881 63.4971 147.46C63.4971 147.851 63.536 148.177 63.6139 148.439C63.6934 148.699 63.8053 148.895 63.9495 149.026C64.0937 149.155 64.2627 149.219 64.4566 149.219Z" fill="#43FFFC"/>
<g filter="url(#filter9_d_25_570)">
<circle cx="123.738" cy="114.372" r="5.37188" transform="rotate(-180 123.738 114.372)" fill="#43FFFC" fill-opacity="0.1" shape-rendering="crispEdges"/>
<circle cx="123.738" cy="114.372" r="4.87188" transform="rotate(-180 123.738 114.372)" stroke="#43FFFC" shape-rendering="crispEdges"/>
</g>
<circle cx="123.834" cy="114.468" r="3.35742" transform="rotate(-180 123.834 114.468)" fill="#094052" fill-opacity="0.5"/>
<g filter="url(#filter10_d_25_570)">
<path d="M255.729 50.5623L284.603 21.6885H298.225" stroke="#43FFFC" shape-rendering="crispEdges"/>
</g>
<g filter="url(#filter11_d_25_570)">
<rect x="298" y="12" width="62" height="19" fill="#094052" fill-opacity="0.2" shape-rendering="crispEdges"/>
<rect x="298.5" y="12.5" width="61" height="18" stroke="#43FFFC" shape-rendering="crispEdges"/>
</g>
<g filter="url(#filter12_d_25_570)">
<line x1="361.5" y1="14" x2="361.5" y2="28.1971" stroke="#43FFFC" shape-rendering="crispEdges"/>
</g>
<g filter="url(#filter13_d_25_570)">
<line x1="363.61" y1="17.4534" x2="363.61" y2="24.5519" stroke="#43FFFC" shape-rendering="crispEdges"/>
</g>
<path d="M308.819 20.948V21.599H310.814V20.948H308.819ZM308.483 18.694V19.401H310.737V18.694H308.483ZM308.238 19.87V20.591H311.661V19.87H308.238ZM309.274 18.057V20.234H310.051V18.057H309.274ZM311.178 18.225C310.597 19.786 309.505 21.011 308.084 21.711C308.252 21.858 308.539 22.18 308.651 22.348C310.1 21.529 311.262 20.185 311.955 18.449L311.178 18.225ZM309.596 21.942V23.825C309.596 23.902 309.568 23.923 309.477 23.923C309.386 23.923 309.085 23.923 308.812 23.916C308.91 24.119 309.015 24.42 309.05 24.637C309.491 24.637 309.82 24.623 310.072 24.511C310.317 24.399 310.38 24.203 310.38 23.839V21.942H309.596ZM310.639 20.948V21.074C310.464 21.361 310.086 21.781 309.771 22.019C309.883 22.124 310.079 22.32 310.17 22.453C310.597 22.152 311.073 21.683 311.416 21.263L310.961 20.906L310.807 20.948H310.639ZM308.182 22.593L308.266 23.342C309.176 23.265 310.457 23.153 311.654 23.041V22.327C310.408 22.432 309.071 22.537 308.182 22.593ZM312.214 19.338V20.115H314.783V19.338H312.214ZM312.312 18.05C312.123 19.275 311.759 20.451 311.164 21.158C311.353 21.291 311.696 21.599 311.836 21.753C312.48 20.92 312.921 19.583 313.159 18.183L312.312 18.05ZM313.537 19.807C313.327 21.879 312.718 23.195 311.122 23.895C311.276 24.077 311.521 24.462 311.605 24.658C313.376 23.776 314.097 22.278 314.398 19.884L313.537 19.807ZM312.676 19.94L311.913 20.059C312.256 22.159 312.865 23.797 314.272 24.637C314.398 24.406 314.664 24.077 314.86 23.909C313.565 23.237 312.956 21.718 312.676 19.94ZM316.631 20.451V21.172H319.858V20.451H316.631ZM315.378 22.019V22.796H321.643V22.019H315.378ZM318.073 21.571V23.706C318.073 23.804 318.031 23.839 317.891 23.839C317.751 23.839 317.226 23.839 316.778 23.825C316.911 24.042 317.065 24.399 317.121 24.637C317.716 24.637 318.164 24.623 318.493 24.511C318.829 24.385 318.934 24.168 318.934 23.734V21.571H318.073ZM319.585 20.451V20.605C319.326 20.948 318.731 21.445 318.192 21.725C318.318 21.837 318.542 22.068 318.64 22.208C319.326 21.879 320.019 21.333 320.502 20.815L319.97 20.409L319.795 20.451H319.585ZM315.462 19.17V20.885H316.253V19.912H320.733V20.885H321.566V19.17H315.462ZM320.313 18.106C320.145 18.498 319.83 19.023 319.564 19.366L320.25 19.618C320.537 19.31 320.901 18.834 321.223 18.372L320.313 18.106ZM315.931 18.449C316.169 18.743 316.428 19.142 316.526 19.401L317.289 19.051C317.177 18.778 316.897 18.4 316.645 18.127L315.931 18.449ZM317.695 18.295C317.905 18.617 318.122 19.058 318.192 19.338L318.99 19.03C318.899 18.75 318.661 18.323 318.437 18.015L317.695 18.295ZM324.737 19.324V20.003H328.713V19.324H324.737ZM324.702 21.788V22.481H328.79V21.788H324.702ZM326.291 18.057V21.326H327.082V18.057H326.291ZM324.947 18.491C325.129 18.785 325.325 19.17 325.388 19.422L326.06 19.1C325.976 18.848 325.766 18.477 325.57 18.204L324.947 18.491ZM327.824 18.148C327.712 18.442 327.495 18.855 327.32 19.114L327.88 19.38C328.069 19.149 328.307 18.799 328.559 18.463L327.824 18.148ZM326.165 19.59C325.836 20.129 325.192 20.647 324.534 20.906C324.695 21.046 324.926 21.319 325.038 21.501C325.745 21.165 326.403 20.514 326.788 19.793L326.165 19.59ZM327.187 19.611L326.606 19.842C327.005 20.465 327.691 21.095 328.328 21.424C328.447 21.235 328.685 20.955 328.853 20.808C328.23 20.563 327.544 20.087 327.187 19.611ZM326.067 21.256C325.766 21.935 325.297 22.81 324.954 23.356L325.661 23.58C326.018 23.006 326.501 22.152 326.879 21.424L326.067 21.256ZM325.332 23.321C326.396 23.72 327.488 24.259 328.132 24.651L328.692 24.07C328.006 23.685 326.851 23.167 325.787 22.782L325.332 23.321ZM327.348 22.306C327.047 23.419 326.277 23.804 324.499 23.93C324.618 24.091 324.744 24.399 324.807 24.637C326.893 24.357 327.803 23.86 328.174 22.376L327.348 22.306ZM322.308 19.506V20.283H324.625V19.506H322.308ZM323.162 18.057V24.63H323.925V18.057H323.162ZM323.148 20.038C322.987 20.927 322.595 22.026 322.147 22.635C322.266 22.831 322.448 23.153 322.518 23.377C323.015 22.656 323.414 21.305 323.617 20.199L323.148 20.038ZM323.89 20.563L323.54 20.906C323.736 21.249 324.156 22.068 324.317 22.495L324.751 21.893C324.632 21.683 324.051 20.766 323.89 20.563ZM346.361 18.057V18.848H347.103V18.057H346.361ZM346.361 20.976V24.252H347.103V20.976H346.361ZM344.926 18.547V19.184H348.636V18.547H344.926ZM344.758 19.723V20.374H348.783V19.723H344.758ZM344.569 23.888V24.539H348.846V23.888H344.569ZM344.898 22.936V23.545H348.594V22.936H344.898ZM345.444 19.205C345.549 19.415 345.647 19.709 345.675 19.891L346.333 19.709C346.298 19.527 346.186 19.254 346.06 19.051L345.444 19.205ZM347.425 19.058C347.369 19.254 347.236 19.534 347.138 19.73L347.712 19.891C347.824 19.723 347.971 19.485 348.132 19.233L347.425 19.058ZM345.752 21.851H347.761V22.159H345.752V21.851ZM345.752 21.088H347.761V21.389H345.752V21.088ZM345.059 20.598V22.649H348.482V20.598H345.059ZM343.246 18.057V24.63H343.911V18.057H343.246ZM342.392 19.345V23.153H342.987V20.087H344.436V19.345H342.392ZM344.177 19.345V22.278C344.177 22.334 344.17 22.341 344.135 22.341C344.093 22.341 344.016 22.341 343.925 22.341C344.016 22.53 344.093 22.838 344.1 23.034C344.317 23.034 344.45 23.013 344.59 22.887C344.716 22.761 344.744 22.544 344.744 22.299V19.345H344.177Z" fill="white"/>
<path d="M331.627 18.9091V24H330.551V19.9308H330.521L329.355 20.6616V19.707L330.616 18.9091H331.627ZM334.834 24.1119C334.406 24.1102 334.038 24.005 333.73 23.7962C333.423 23.5874 333.187 23.2849 333.021 22.8888C332.857 22.4928 332.776 22.0163 332.778 21.4595C332.778 20.9044 332.86 20.4312 333.024 20.0401C333.19 19.649 333.426 19.3516 333.732 19.1477C334.041 18.9422 334.408 18.8395 334.834 18.8395C335.259 18.8395 335.626 18.9422 335.932 19.1477C336.241 19.3532 336.477 19.6515 336.643 20.0426C336.809 20.4321 336.891 20.9044 336.889 21.4595C336.889 22.018 336.806 22.4953 336.641 22.8913C336.477 23.2874 336.241 23.5898 335.935 23.7987C335.628 24.0075 335.261 24.1119 334.834 24.1119ZM334.834 23.2195C335.125 23.2195 335.358 23.0728 335.532 22.7795C335.706 22.4862 335.792 22.0462 335.791 21.4595C335.791 21.0734 335.751 20.7519 335.671 20.495C335.593 20.2382 335.482 20.0451 335.338 19.9158C335.196 19.7866 335.027 19.7219 334.834 19.7219C334.544 19.7219 334.312 19.867 334.138 20.157C333.964 20.447 333.876 20.8812 333.874 21.4595C333.874 21.8506 333.913 22.1771 333.991 22.4389C334.07 22.6991 334.182 22.8946 334.326 23.0256C334.471 23.1548 334.64 23.2195 334.834 23.2195ZM339.653 24.1119C339.225 24.1102 338.857 24.005 338.549 23.7962C338.243 23.5874 338.006 23.2849 337.841 22.8888C337.677 22.4928 337.595 22.0163 337.597 21.4595C337.597 20.9044 337.679 20.4312 337.843 20.0401C338.009 19.649 338.245 19.3516 338.552 19.1477C338.86 18.9422 339.227 18.8395 339.653 18.8395C340.079 18.8395 340.445 18.9422 340.752 19.1477C341.06 19.3532 341.297 19.6515 341.463 20.0426C341.628 20.4321 341.71 20.9044 341.709 21.4595C341.709 22.018 341.626 22.4953 341.46 22.8913C341.296 23.2874 341.061 23.5898 340.754 23.7987C340.448 24.0075 340.08 24.1119 339.653 24.1119ZM339.653 23.2195C339.945 23.2195 340.177 23.0728 340.351 22.7795C340.525 22.4862 340.612 22.0462 340.61 21.4595C340.61 21.0734 340.57 20.7519 340.491 20.495C340.413 20.2382 340.302 20.0451 340.157 19.9158C340.015 19.7866 339.847 19.7219 339.653 19.7219C339.363 19.7219 339.131 19.867 338.957 20.157C338.783 20.447 338.695 20.8812 338.693 21.4595C338.693 21.8506 338.732 22.1771 338.81 22.4389C338.89 22.6991 339.002 22.8946 339.146 23.0256C339.29 23.1548 339.459 23.2195 339.653 23.2195Z" fill="#43FFFC"/>
<g filter="url(#filter14_d_25_570)">
<circle cx="252.372" cy="54.5914" r="5.37188" fill="#43FFFC" fill-opacity="0.1" shape-rendering="crispEdges"/>
<circle cx="252.372" cy="54.5914" r="4.87188" stroke="#43FFFC" shape-rendering="crispEdges"/>
</g>
<circle cx="252.276" cy="54.4954" r="3.35742" fill="#094052" fill-opacity="0.5"/>
<g filter="url(#filter15_d_25_570)">
<path d="M120.381 50.5623L91.5071 21.6885H77.8856" stroke="#43FFFC" shape-rendering="crispEdges"/>
</g>
<g filter="url(#filter16_d_25_570)">
<rect width="62" height="19" transform="matrix(-1 0 0 1 78.1104 12)" fill="#094052" fill-opacity="0.2" shape-rendering="crispEdges"/>
<rect x="-0.5" y="0.5" width="61" height="18" transform="matrix(-1 0 0 1 77.1104 12)" stroke="#43FFFC" shape-rendering="crispEdges"/>
</g>
<g filter="url(#filter17_d_25_570)">
<line y1="-0.5" x2="14.1971" y2="-0.5" transform="matrix(4.37114e-08 1 1 -4.37114e-08 15.1104 14)" stroke="#43FFFC" shape-rendering="crispEdges"/>
</g>
<g filter="url(#filter18_d_25_570)">
<line y1="-0.5" x2="7.09855" y2="-0.5" transform="matrix(-4.37114e-08 1 1 4.37114e-08 13 17.4534)" stroke="#43FFFC" shape-rendering="crispEdges"/>
</g>
<g filter="url(#filter19_d_25_570)">
<circle r="5.37188" transform="matrix(-1 0 0 1 123.738 54.5914)" fill="#43FFFC" fill-opacity="0.1" shape-rendering="crispEdges"/>
<circle r="4.87188" transform="matrix(-1 0 0 1 123.738 54.5914)" stroke="#43FFFC" shape-rendering="crispEdges"/>
</g>
<circle r="3.35742" transform="matrix(-1 0 0 1 123.834 54.4954)" fill="#094052" fill-opacity="0.5"/>
<path d="M26.631 20.451V21.172H29.858V20.451H26.631ZM25.378 22.019V22.796H31.643V22.019H25.378ZM28.073 21.571V23.706C28.073 23.804 28.031 23.839 27.891 23.839C27.751 23.839 27.226 23.839 26.778 23.825C26.911 24.042 27.065 24.399 27.121 24.637C27.716 24.637 28.164 24.623 28.493 24.511C28.829 24.385 28.934 24.168 28.934 23.734V21.571H28.073ZM29.585 20.451V20.605C29.326 20.948 28.731 21.445 28.192 21.725C28.318 21.837 28.542 22.068 28.64 22.208C29.326 21.879 30.019 21.333 30.502 20.815L29.97 20.409L29.795 20.451H29.585ZM25.462 19.17V20.885H26.253V19.912H30.733V20.885H31.566V19.17H25.462ZM30.313 18.106C30.145 18.498 29.83 19.023 29.564 19.366L30.25 19.618C30.537 19.31 30.901 18.834 31.223 18.372L30.313 18.106ZM25.931 18.449C26.169 18.743 26.428 19.142 26.526 19.401L27.289 19.051C27.177 18.778 26.897 18.4 26.645 18.127L25.931 18.449ZM27.695 18.295C27.905 18.617 28.122 19.058 28.192 19.338L28.99 19.03C28.899 18.75 28.661 18.323 28.437 18.015L27.695 18.295ZM33.449 19.324V20.143H38.321V19.324H33.449ZM33.162 21.389V22.194H38.055V21.389H33.162ZM32.35 23.608V24.427H38.678V23.608H32.35ZM35.073 18.057V24.014H35.948V18.057H35.073ZM33.456 18.141C33.204 19.107 32.756 20.073 32.203 20.661C32.42 20.78 32.791 21.025 32.959 21.172C33.505 20.5 34.016 19.422 34.324 18.337L33.456 18.141ZM64.6141 18.225C64.5651 19.142 64.6631 22.341 61.8491 23.902C62.1361 24.098 62.4091 24.357 62.5561 24.574C65.4191 22.817 65.5101 19.401 65.5731 18.225H64.6141ZM65.5451 18.407L64.7331 18.491C64.7891 19.212 64.9221 23.069 67.9391 24.567C68.0651 24.336 68.3171 24.056 68.5831 23.853C65.7131 22.509 65.5661 19.016 65.5451 18.407Z" fill="white"/>
<path d="M41.6275 18.9091V24H40.5511V19.9308H40.5213L39.3555 20.6616V19.707L40.6158 18.9091H41.6275ZM44.8335 24.1119C44.406 24.1102 44.0381 24.005 43.7298 23.7962C43.4233 23.5874 43.1871 23.2849 43.0214 22.8888C42.8573 22.4928 42.7761 22.0163 42.7778 21.4595C42.7778 20.9044 42.8598 20.4312 43.0239 20.0401C43.1896 19.649 43.4258 19.3516 43.7323 19.1477C44.0406 18.9422 44.4076 18.8395 44.8335 18.8395C45.2594 18.8395 45.6257 18.9422 45.9323 19.1477C46.2405 19.3532 46.4775 19.6515 46.6432 20.0426C46.8089 20.4321 46.891 20.9044 46.8893 21.4595C46.8893 22.018 46.8064 22.4953 46.6407 22.8913C46.4767 23.2874 46.2413 23.5898 45.9347 23.7987C45.6282 24.0075 45.2611 24.1119 44.8335 24.1119ZM44.8335 23.2195C45.1252 23.2195 45.358 23.0728 45.532 22.7795C45.7061 22.4862 45.7922 22.0462 45.7906 21.4595C45.7906 21.0734 45.7508 20.7519 45.6713 20.495C45.5934 20.2382 45.4823 20.0451 45.3382 19.9158C45.1956 19.7866 45.0274 19.7219 44.8335 19.7219C44.5435 19.7219 44.3115 19.867 44.1375 20.157C43.9635 20.447 43.8757 20.8812 43.874 21.4595C43.874 21.8506 43.913 22.1771 43.9909 22.4389C44.0704 22.6991 44.1823 22.8946 44.3264 23.0256C44.4706 23.1548 44.6396 23.2195 44.8335 23.2195ZM49.6529 24.1119C49.2253 24.1102 48.8574 24.005 48.5492 23.7962C48.2426 23.5874 48.0065 23.2849 47.8407 22.8888C47.6767 22.4928 47.5955 22.0163 47.5971 21.4595C47.5971 20.9044 47.6792 20.4312 47.8432 20.0401C48.0089 19.649 48.2451 19.3516 48.5517 19.1477C48.8599 18.9422 49.227 18.8395 49.6529 18.8395C50.0788 18.8395 50.445 18.9422 50.7516 19.1477C51.0598 19.3532 51.2968 19.6515 51.4625 20.0426C51.6283 20.4321 51.7103 20.9044 51.7086 21.4595C51.7086 22.018 51.6258 22.4953 51.46 22.8913C51.296 23.2874 51.0607 23.5898 50.7541 23.7987C50.4475 24.0075 50.0804 24.1119 49.6529 24.1119ZM49.6529 23.2195C49.9445 23.2195 50.1774 23.0728 50.3514 22.7795C50.5254 22.4862 50.6116 22.0462 50.6099 21.4595C50.6099 21.0734 50.5701 20.7519 50.4906 20.495C50.4127 20.2382 50.3017 20.0451 50.1575 19.9158C50.015 19.7866 49.8468 19.7219 49.6529 19.7219C49.3629 19.7219 49.1309 19.867 48.9569 20.157C48.7828 20.447 48.695 20.8812 48.6934 21.4595C48.6934 21.8506 48.7323 22.1771 48.8102 22.4389C48.8897 22.6991 49.0016 22.8946 49.1458 23.0256C49.29 23.1548 49.459 23.2195 49.6529 23.2195ZM54.4722 24.1119C54.0447 24.1102 53.6768 24.005 53.3685 23.7962C53.0619 23.5874 52.8258 23.2849 52.6601 22.8888C52.496 22.4928 52.4148 22.0163 52.4165 21.4595C52.4165 20.9044 52.4985 20.4312 52.6626 20.0401C52.8283 19.649 53.0644 19.3516 53.371 19.1477C53.6792 18.9422 54.0463 18.8395 54.4722 18.8395C54.8981 18.8395 55.2644 18.9422 55.5709 19.1477C55.8792 19.3532 56.1162 19.6515 56.2819 20.0426C56.4476 20.4321 56.5296 20.9044 56.528 21.4595C56.528 22.018 56.4451 22.4953 56.2794 22.8913C56.1153 23.2874 55.88 23.5898 55.5734 23.7987C55.2668 24.0075 54.8998 24.1119 54.4722 24.1119ZM54.4722 23.2195C54.7639 23.2195 54.9967 23.0728 55.1707 22.7795C55.3447 22.4862 55.4309 22.0462 55.4292 21.4595C55.4292 21.0734 55.3895 20.7519 55.3099 20.495C55.232 20.2382 55.121 20.0451 54.9768 19.9158C54.8343 19.7866 54.6661 19.7219 54.4722 19.7219C54.1822 19.7219 53.9502 19.867 53.7762 20.157C53.6022 20.447 53.5144 20.8812 53.5127 21.4595C53.5127 21.8506 53.5516 22.1771 53.6295 22.4389C53.7091 22.6991 53.8209 22.8946 53.9651 23.0256C54.1093 23.1548 54.2783 23.2195 54.4722 23.2195ZM59.2915 24.1119C58.864 24.1102 58.4961 24.005 58.1879 23.7962C57.8813 23.5874 57.6451 23.2849 57.4794 22.8888C57.3153 22.4928 57.2341 22.0163 57.2358 21.4595C57.2358 20.9044 57.3178 20.4312 57.4819 20.0401C57.6476 19.649 57.8838 19.3516 58.1903 19.1477C58.4986 18.9422 58.8656 18.8395 59.2915 18.8395C59.7174 18.8395 60.0837 18.9422 60.3903 19.1477C60.6985 19.3532 60.9355 19.6515 61.1012 20.0426C61.2669 20.4321 61.349 20.9044 61.3473 21.4595C61.3473 22.018 61.2644 22.4953 61.0987 22.8913C60.9347 23.2874 60.6993 23.5898 60.3928 23.7987C60.0862 24.0075 59.7191 24.1119 59.2915 24.1119ZM59.2915 23.2195C59.5832 23.2195 59.8161 23.0728 59.9901 22.7795C60.1641 22.4862 60.2502 22.0462 60.2486 21.4595C60.2486 21.0734 60.2088 20.7519 60.1293 20.495C60.0514 20.2382 59.9403 20.0451 59.7962 19.9158C59.6536 19.7866 59.4854 19.7219 59.2915 19.7219C59.0015 19.7219 58.7695 19.867 58.5955 20.157C58.4215 20.447 58.3337 20.8812 58.332 21.4595C58.332 21.8506 58.371 22.1771 58.4489 22.4389C58.5284 22.6991 58.6403 22.8946 58.7844 23.0256C58.9286 23.1548 59.0977 23.2195 59.2915 23.2195Z" fill="#43FFFC"/>
<defs>
<filter id="filter0_d_25_570" x="251" y="97" width="34.7438" height="34.7437" filterUnits="userSpaceOnUse" color-interpolation-filters="sRGB">
<feFlood flood-opacity="0" result="BackgroundImageFix"/>
<feColorMatrix in="SourceAlpha" type="matrix" values="0 0 0 0 0 0 0 0 0 0 0 0 0 0 0 0 0 0 127 0" result="hardAlpha"/>
<feMorphology radius="2" operator="dilate" in="SourceAlpha" result="effect1_dropShadow_25_570"/>
<feOffset/>
<feGaussianBlur stdDeviation="5"/>
<feComposite in2="hardAlpha" operator="out"/>
<feColorMatrix type="matrix" values="0 0 0 0 0.262745 0 0 0 0 1 0 0 0 0 0.988235 0 0 0 0.5 0"/>
<feBlend mode="normal" in2="BackgroundImageFix" result="effect1_dropShadow_25_570"/>
<feBlend mode="normal" in="SourceGraphic" in2="effect1_dropShadow_25_570" result="shape"/>
</filter>
<filter id="filter1_d_25_570" x="259.376" y="106.047" width="66.8489" height="53.7273" filterUnits="userSpaceOnUse" color-interpolation-filters="sRGB">
<feFlood flood-opacity="0" result="BackgroundImageFix"/>
<feColorMatrix in="SourceAlpha" type="matrix" values="0 0 0 0 0 0 0 0 0 0 0 0 0 0 0 0 0 0 127 0" result="hardAlpha"/>
<feMorphology radius="2" operator="dilate" in="SourceAlpha" result="effect1_dropShadow_25_570"/>
<feOffset/>
<feGaussianBlur stdDeviation="5"/>
<feComposite in2="hardAlpha" operator="out"/>
<feColorMatrix type="matrix" values="0 0 0 0 0.262745 0 0 0 0 1 0 0 0 0 0.988235 0 0 0 0.5 0"/>
<feBlend mode="normal" in2="BackgroundImageFix" result="effect1_dropShadow_25_570"/>
<feBlend mode="normal" in="SourceGraphic" in2="effect1_dropShadow_25_570" result="shape"/>
</filter>
<filter id="filter2_d_25_570" x="302" y="125.963" width="86" height="43" filterUnits="userSpaceOnUse" color-interpolation-filters="sRGB">
<feFlood flood-opacity="0" result="BackgroundImageFix"/>
<feColorMatrix in="SourceAlpha" type="matrix" values="0 0 0 0 0 0 0 0 0 0 0 0 0 0 0 0 0 0 127 0" result="hardAlpha"/>
<feMorphology radius="2" operator="dilate" in="SourceAlpha" result="effect1_dropShadow_25_570"/>
<feOffset/>
<feGaussianBlur stdDeviation="5"/>
<feComposite in2="hardAlpha" operator="out"/>
<feColorMatrix type="matrix" values="0 0 0 0 0.262745 0 0 0 0 1 0 0 0 0 0.988235 0 0 0 0.5 0"/>
<feBlend mode="normal" in2="BackgroundImageFix" result="effect1_dropShadow_25_570"/>
<feBlend mode="normal" in="SourceGraphic" in2="effect1_dropShadow_25_570" result="shape"/>
</filter>
<filter id="filter3_d_25_570" x="365" y="128.766" width="25" height="38.197" filterUnits="userSpaceOnUse" color-interpolation-filters="sRGB">
<feFlood flood-opacity="0" result="BackgroundImageFix"/>
<feColorMatrix in="SourceAlpha" type="matrix" values="0 0 0 0 0 0 0 0 0 0 0 0 0 0 0 0 0 0 127 0" result="hardAlpha"/>
<feMorphology radius="2" operator="dilate" in="SourceAlpha" result="effect1_dropShadow_25_570"/>
<feOffset/>
<feGaussianBlur stdDeviation="5"/>
<feComposite in2="hardAlpha" operator="out"/>
<feColorMatrix type="matrix" values="0 0 0 0 0.262745 0 0 0 0 1 0 0 0 0 0.988235 0 0 0 0.5 0"/>
<feBlend mode="normal" in2="BackgroundImageFix" result="effect1_dropShadow_25_570"/>
<feBlend mode="normal" in="SourceGraphic" in2="effect1_dropShadow_25_570" result="shape"/>
</filter>
<filter id="filter4_d_25_570" x="367.11" y="132.411" width="25" height="31.0986" filterUnits="userSpaceOnUse" color-interpolation-filters="sRGB">
<feFlood flood-opacity="0" result="BackgroundImageFix"/>
<feColorMatrix in="SourceAlpha" type="matrix" values="0 0 0 0 0 0 0 0 0 0 0 0 0 0 0 0 0 0 127 0" result="hardAlpha"/>
<feMorphology radius="2" operator="dilate" in="SourceAlpha" result="effect1_dropShadow_25_570"/>
<feOffset/>
<feGaussianBlur stdDeviation="5"/>
<feComposite in2="hardAlpha" operator="out"/>
<feColorMatrix type="matrix" values="0 0 0 0 0.262745 0 0 0 0 1 0 0 0 0 0.988235 0 0 0 0.5 0"/>
<feBlend mode="normal" in2="BackgroundImageFix" result="effect1_dropShadow_25_570"/>
<feBlend mode="normal" in="SourceGraphic" in2="effect1_dropShadow_25_570" result="shape"/>
</filter>
<filter id="filter5_d_25_570" x="65.8857" y="106.047" width="66.8489" height="53.7273" filterUnits="userSpaceOnUse" color-interpolation-filters="sRGB">
<feFlood flood-opacity="0" result="BackgroundImageFix"/>
<feColorMatrix in="SourceAlpha" type="matrix" values="0 0 0 0 0 0 0 0 0 0 0 0 0 0 0 0 0 0 127 0" result="hardAlpha"/>
<feMorphology radius="2" operator="dilate" in="SourceAlpha" result="effect1_dropShadow_25_570"/>
<feOffset/>
<feGaussianBlur stdDeviation="5"/>
<feComposite in2="hardAlpha" operator="out"/>
<feColorMatrix type="matrix" values="0 0 0 0 0.262745 0 0 0 0 1 0 0 0 0 0.988235 0 0 0 0.5 0"/>
<feBlend mode="normal" in2="BackgroundImageFix" result="effect1_dropShadow_25_570"/>
<feBlend mode="normal" in="SourceGraphic" in2="effect1_dropShadow_25_570" result="shape"/>
</filter>
<filter id="filter6_d_25_570" x="4.11047" y="125.963" width="86" height="43" filterUnits="userSpaceOnUse" color-interpolation-filters="sRGB">
<feFlood flood-opacity="0" result="BackgroundImageFix"/>
<feColorMatrix in="SourceAlpha" type="matrix" values="0 0 0 0 0 0 0 0 0 0 0 0 0 0 0 0 0 0 127 0" result="hardAlpha"/>
<feMorphology radius="2" operator="dilate" in="SourceAlpha" result="effect1_dropShadow_25_570"/>
<feOffset/>
<feGaussianBlur stdDeviation="5"/>
<feComposite in2="hardAlpha" operator="out"/>
<feColorMatrix type="matrix" values="0 0 0 0 0.262745 0 0 0 0 1 0 0 0 0 0.988235 0 0 0 0.5 0"/>
<feBlend mode="normal" in2="BackgroundImageFix" result="effect1_dropShadow_25_570"/>
<feBlend mode="normal" in="SourceGraphic" in2="effect1_dropShadow_25_570" result="shape"/>
</filter>
<filter id="filter7_d_25_570" x="2.11047" y="128.766" width="25" height="38.197" filterUnits="userSpaceOnUse" color-interpolation-filters="sRGB">
<feFlood flood-opacity="0" result="BackgroundImageFix"/>
<feColorMatrix in="SourceAlpha" type="matrix" values="0 0 0 0 0 0 0 0 0 0 0 0 0 0 0 0 0 0 127 0" result="hardAlpha"/>
<feMorphology radius="2" operator="dilate" in="SourceAlpha" result="effect1_dropShadow_25_570"/>
<feOffset/>
<feGaussianBlur stdDeviation="5"/>
<feComposite in2="hardAlpha" operator="out"/>
<feColorMatrix type="matrix" values="0 0 0 0 0.262745 0 0 0 0 1 0 0 0 0 0.988235 0 0 0 0.5 0"/>
<feBlend mode="normal" in2="BackgroundImageFix" result="effect1_dropShadow_25_570"/>
<feBlend mode="normal" in="SourceGraphic" in2="effect1_dropShadow_25_570" result="shape"/>
</filter>
<filter id="filter8_d_25_570" x="0.00012207" y="132.411" width="25" height="31.0986" filterUnits="userSpaceOnUse" color-interpolation-filters="sRGB">
<feFlood flood-opacity="0" result="BackgroundImageFix"/>
<feColorMatrix in="SourceAlpha" type="matrix" values="0 0 0 0 0 0 0 0 0 0 0 0 0 0 0 0 0 0 127 0" result="hardAlpha"/>
<feMorphology radius="2" operator="dilate" in="SourceAlpha" result="effect1_dropShadow_25_570"/>
<feOffset/>
<feGaussianBlur stdDeviation="5"/>
<feComposite in2="hardAlpha" operator="out"/>
<feColorMatrix type="matrix" values="0 0 0 0 0.262745 0 0 0 0 1 0 0 0 0 0.988235 0 0 0 0.5 0"/>
<feBlend mode="normal" in2="BackgroundImageFix" result="effect1_dropShadow_25_570"/>
<feBlend mode="normal" in="SourceGraphic" in2="effect1_dropShadow_25_570" result="shape"/>
</filter>
<filter id="filter9_d_25_570" x="106.367" y="97" width="34.7438" height="34.7437" filterUnits="userSpaceOnUse" color-interpolation-filters="sRGB">
<feFlood flood-opacity="0" result="BackgroundImageFix"/>
<feColorMatrix in="SourceAlpha" type="matrix" values="0 0 0 0 0 0 0 0 0 0 0 0 0 0 0 0 0 0 127 0" result="hardAlpha"/>
<feMorphology radius="2" operator="dilate" in="SourceAlpha" result="effect1_dropShadow_25_570"/>
<feOffset/>
<feGaussianBlur stdDeviation="5"/>
<feComposite in2="hardAlpha" operator="out"/>
<feColorMatrix type="matrix" values="0 0 0 0 0.262745 0 0 0 0 1 0 0 0 0 0.988235 0 0 0 0.5 0"/>
<feBlend mode="normal" in2="BackgroundImageFix" result="effect1_dropShadow_25_570"/>
<feBlend mode="normal" in="SourceGraphic" in2="effect1_dropShadow_25_570" result="shape"/>
</filter>
<filter id="filter10_d_25_570" x="243.376" y="9.18848" width="66.8489" height="53.7273" filterUnits="userSpaceOnUse" color-interpolation-filters="sRGB">
<feFlood flood-opacity="0" result="BackgroundImageFix"/>
<feColorMatrix in="SourceAlpha" type="matrix" values="0 0 0 0 0 0 0 0 0 0 0 0 0 0 0 0 0 0 127 0" result="hardAlpha"/>
<feMorphology radius="2" operator="dilate" in="SourceAlpha" result="effect1_dropShadow_25_570"/>
<feOffset/>
<feGaussianBlur stdDeviation="5"/>
<feComposite in2="hardAlpha" operator="out"/>
<feColorMatrix type="matrix" values="0 0 0 0 0.262745 0 0 0 0 1 0 0 0 0 0.988235 0 0 0 0.5 0"/>
<feBlend mode="normal" in2="BackgroundImageFix" result="effect1_dropShadow_25_570"/>
<feBlend mode="normal" in="SourceGraphic" in2="effect1_dropShadow_25_570" result="shape"/>
</filter>
<filter id="filter11_d_25_570" x="286" y="0" width="86" height="43" filterUnits="userSpaceOnUse" color-interpolation-filters="sRGB">
<feFlood flood-opacity="0" result="BackgroundImageFix"/>
<feColorMatrix in="SourceAlpha" type="matrix" values="0 0 0 0 0 0 0 0 0 0 0 0 0 0 0 0 0 0 127 0" result="hardAlpha"/>
<feMorphology radius="2" operator="dilate" in="SourceAlpha" result="effect1_dropShadow_25_570"/>
<feOffset/>
<feGaussianBlur stdDeviation="5"/>
<feComposite in2="hardAlpha" operator="out"/>
<feColorMatrix type="matrix" values="0 0 0 0 0.262745 0 0 0 0 1 0 0 0 0 0.988235 0 0 0 0.5 0"/>
<feBlend mode="normal" in2="BackgroundImageFix" result="effect1_dropShadow_25_570"/>
<feBlend mode="normal" in="SourceGraphic" in2="effect1_dropShadow_25_570" result="shape"/>
</filter>
<filter id="filter12_d_25_570" x="349" y="2" width="25" height="38.197" filterUnits="userSpaceOnUse" color-interpolation-filters="sRGB">
<feFlood flood-opacity="0" result="BackgroundImageFix"/>
<feColorMatrix in="SourceAlpha" type="matrix" values="0 0 0 0 0 0 0 0 0 0 0 0 0 0 0 0 0 0 127 0" result="hardAlpha"/>
<feMorphology radius="2" operator="dilate" in="SourceAlpha" result="effect1_dropShadow_25_570"/>
<feOffset/>
<feGaussianBlur stdDeviation="5"/>
<feComposite in2="hardAlpha" operator="out"/>
<feColorMatrix type="matrix" values="0 0 0 0 0.262745 0 0 0 0 1 0 0 0 0 0.988235 0 0 0 0.5 0"/>
<feBlend mode="normal" in2="BackgroundImageFix" result="effect1_dropShadow_25_570"/>
<feBlend mode="normal" in="SourceGraphic" in2="effect1_dropShadow_25_570" result="shape"/>
</filter>
<filter id="filter13_d_25_570" x="351.11" y="5.45337" width="25" height="31.0986" filterUnits="userSpaceOnUse" color-interpolation-filters="sRGB">
<feFlood flood-opacity="0" result="BackgroundImageFix"/>
<feColorMatrix in="SourceAlpha" type="matrix" values="0 0 0 0 0 0 0 0 0 0 0 0 0 0 0 0 0 0 127 0" result="hardAlpha"/>
<feMorphology radius="2" operator="dilate" in="SourceAlpha" result="effect1_dropShadow_25_570"/>
<feOffset/>
<feGaussianBlur stdDeviation="5"/>
<feComposite in2="hardAlpha" operator="out"/>
<feColorMatrix type="matrix" values="0 0 0 0 0.262745 0 0 0 0 1 0 0 0 0 0.988235 0 0 0 0.5 0"/>
<feBlend mode="normal" in2="BackgroundImageFix" result="effect1_dropShadow_25_570"/>
<feBlend mode="normal" in="SourceGraphic" in2="effect1_dropShadow_25_570" result="shape"/>
</filter>
<filter id="filter14_d_25_570" x="235" y="37.2195" width="34.7438" height="34.7437" filterUnits="userSpaceOnUse" color-interpolation-filters="sRGB">
<feFlood flood-opacity="0" result="BackgroundImageFix"/>
<feColorMatrix in="SourceAlpha" type="matrix" values="0 0 0 0 0 0 0 0 0 0 0 0 0 0 0 0 0 0 127 0" result="hardAlpha"/>
<feMorphology radius="2" operator="dilate" in="SourceAlpha" result="effect1_dropShadow_25_570"/>
<feOffset/>
<feGaussianBlur stdDeviation="5"/>
<feComposite in2="hardAlpha" operator="out"/>
<feColorMatrix type="matrix" values="0 0 0 0 0.262745 0 0 0 0 1 0 0 0 0 0.988235 0 0 0 0.5 0"/>
<feBlend mode="normal" in2="BackgroundImageFix" result="effect1_dropShadow_25_570"/>
<feBlend mode="normal" in="SourceGraphic" in2="effect1_dropShadow_25_570" result="shape"/>
</filter>
<filter id="filter15_d_25_570" x="65.8856" y="9.18848" width="66.8489" height="53.7273" filterUnits="userSpaceOnUse" color-interpolation-filters="sRGB">
<feFlood flood-opacity="0" result="BackgroundImageFix"/>
<feColorMatrix in="SourceAlpha" type="matrix" values="0 0 0 0 0 0 0 0 0 0 0 0 0 0 0 0 0 0 127 0" result="hardAlpha"/>
<feMorphology radius="2" operator="dilate" in="SourceAlpha" result="effect1_dropShadow_25_570"/>
<feOffset/>
<feGaussianBlur stdDeviation="5"/>
<feComposite in2="hardAlpha" operator="out"/>
<feColorMatrix type="matrix" values="0 0 0 0 0.262745 0 0 0 0 1 0 0 0 0 0.988235 0 0 0 0.5 0"/>
<feBlend mode="normal" in2="BackgroundImageFix" result="effect1_dropShadow_25_570"/>
<feBlend mode="normal" in="SourceGraphic" in2="effect1_dropShadow_25_570" result="shape"/>
</filter>
<filter id="filter16_d_25_570" x="4.11035" y="0" width="86" height="43" filterUnits="userSpaceOnUse" color-interpolation-filters="sRGB">
<feFlood flood-opacity="0" result="BackgroundImageFix"/>
<feColorMatrix in="SourceAlpha" type="matrix" values="0 0 0 0 0 0 0 0 0 0 0 0 0 0 0 0 0 0 127 0" result="hardAlpha"/>
<feMorphology radius="2" operator="dilate" in="SourceAlpha" result="effect1_dropShadow_25_570"/>
<feOffset/>
<feGaussianBlur stdDeviation="5"/>
<feComposite in2="hardAlpha" operator="out"/>
<feColorMatrix type="matrix" values="0 0 0 0 0.262745 0 0 0 0 1 0 0 0 0 0.988235 0 0 0 0.5 0"/>
<feBlend mode="normal" in2="BackgroundImageFix" result="effect1_dropShadow_25_570"/>
<feBlend mode="normal" in="SourceGraphic" in2="effect1_dropShadow_25_570" result="shape"/>
</filter>
<filter id="filter17_d_25_570" x="2.11035" y="2" width="25" height="38.197" filterUnits="userSpaceOnUse" color-interpolation-filters="sRGB">
<feFlood flood-opacity="0" result="BackgroundImageFix"/>
<feColorMatrix in="SourceAlpha" type="matrix" values="0 0 0 0 0 0 0 0 0 0 0 0 0 0 0 0 0 0 127 0" result="hardAlpha"/>
<feMorphology radius="2" operator="dilate" in="SourceAlpha" result="effect1_dropShadow_25_570"/>
<feOffset/>
<feGaussianBlur stdDeviation="5"/>
<feComposite in2="hardAlpha" operator="out"/>
<feColorMatrix type="matrix" values="0 0 0 0 0.262745 0 0 0 0 1 0 0 0 0 0.988235 0 0 0 0.5 0"/>
<feBlend mode="normal" in2="BackgroundImageFix" result="effect1_dropShadow_25_570"/>
<feBlend mode="normal" in="SourceGraphic" in2="effect1_dropShadow_25_570" result="shape"/>
</filter>
<filter id="filter18_d_25_570" x="0" y="5.45337" width="25" height="31.0986" filterUnits="userSpaceOnUse" color-interpolation-filters="sRGB">
<feFlood flood-opacity="0" result="BackgroundImageFix"/>
<feColorMatrix in="SourceAlpha" type="matrix" values="0 0 0 0 0 0 0 0 0 0 0 0 0 0 0 0 0 0 127 0" result="hardAlpha"/>
<feMorphology radius="2" operator="dilate" in="SourceAlpha" result="effect1_dropShadow_25_570"/>
<feOffset/>
<feGaussianBlur stdDeviation="5"/>
<feComposite in2="hardAlpha" operator="out"/>
<feColorMatrix type="matrix" values="0 0 0 0 0.262745 0 0 0 0 1 0 0 0 0 0.988235 0 0 0 0.5 0"/>
<feBlend mode="normal" in2="BackgroundImageFix" result="effect1_dropShadow_25_570"/>
<feBlend mode="normal" in="SourceGraphic" in2="effect1_dropShadow_25_570" result="shape"/>
</filter>
<filter id="filter19_d_25_570" x="106.367" y="37.2195" width="34.7438" height="34.7437" filterUnits="userSpaceOnUse" color-interpolation-filters="sRGB">
<feFlood flood-opacity="0" result="BackgroundImageFix"/>
<feColorMatrix in="SourceAlpha" type="matrix" values="0 0 0 0 0 0 0 0 0 0 0 0 0 0 0 0 0 0 127 0" result="hardAlpha"/>
<feMorphology radius="2" operator="dilate" in="SourceAlpha" result="effect1_dropShadow_25_570"/>
<feOffset/>
<feGaussianBlur stdDeviation="5"/>
<feComposite in2="hardAlpha" operator="out"/>
<feColorMatrix type="matrix" values="0 0 0 0 0.262745 0 0 0 0 1 0 0 0 0 0.988235 0 0 0 0.5 0"/>
<feBlend mode="normal" in2="BackgroundImageFix" result="effect1_dropShadow_25_570"/>
<feBlend mode="normal" in="SourceGraphic" in2="effect1_dropShadow_25_570" result="shape"/>
</filter>
</defs>
</svg>
