<svg width="92" height="94" viewBox="0 0 92 94" fill="none" xmlns="http://www.w3.org/2000/svg">
<rect x="16.1404" y="6.05249" width="37.9298" height="83.1228" fill="#24CBB7"/>
<path d="M54.0702 6.05263H16.1404L27.0351 0H66.1755L54.0702 6.05263Z" fill="#DBF7F7"/>
<path d="M66.1755 81.9123L54.0702 89.5789V6.05263L66.1755 0V81.9123Z" fill="#088779"/>
<rect x="60.5264" y="36.4917" width="23.8591" height="52.2869" fill="#24CBB7"/>
<path d="M84.3855 36.4916H60.5264L67.3795 32.6843H92.0001L84.3855 36.4916Z" fill="#DBF7F7"/>
<path d="M92.0001 84.2098L84.3855 89.0324V36.4916L92.0001 32.6843V84.2098Z" fill="#088779"/>
<rect y="41.3337" width="23.8591" height="52.2869" fill="#24CBB7"/>
<path d="M23.8591 41.3337H0L6.85314 37.5264H31.4737L23.8591 41.3337Z" fill="#DBF7F7"/>
<path d="M31.4737 89.0518L23.8591 93.8744V41.3337L31.4737 37.5264V89.0518Z" fill="#088779"/>
</svg>
