<?xml version="1.0" encoding="utf-8"?>
<!-- Generator: Adobe Illustrator 22.1.0, SVG Export Plug-In . SVG Version: 6.00 Build 0)  -->
<svg version="1.1" id="图层_1" xmlns="http://www.w3.org/2000/svg" xmlns:xlink="http://www.w3.org/1999/xlink" x="0px" y="0px"
	 viewBox="0 0 300 300" style="enable-background:new 0 0 300 300;" xml:space="preserve">
<path d="M253.2,124.5c0.2-1.3,0.2-2.5,0.2-3.8c0-31.6-45.9-57.2-102.6-57.2S48.2,89.1,48.2,120.7c0,1.2,0.1,2.4,0.2,3.7
	C19.9,134.9,1,153,1,173.6c0,32.5,47.1,58.9,105.3,58.9c15.5,0,30.1-1.9,43.4-5.2c13.5,3.3,28.4,5.2,44.2,5.2
	c59.2,0,107.2-26.4,107.2-58.9C301,153.1,282,135.1,253.2,124.5z"/>
</svg>
